<mxfile host="app.diagrams.net" modified="2024-02-06T12:16:35.984Z" agent="Mozilla/5.0 (Macintosh; Intel Mac OS X 10_15_7) AppleWebKit/537.36 (KHTML, like Gecko) Chrome/119.0.0.0 Safari/537.36" etag="A0m10LJaoWpWnxJnMpcs" version="23.1.1" type="device">
  <diagram name="Page-1" id="djF7bklVrFnVNrr0f3BQ">
    <mxGraphModel dx="1741" dy="2282" grid="1" gridSize="10" guides="1" tooltips="1" connect="1" arrows="1" fold="1" page="1" pageScale="1" pageWidth="827" pageHeight="1169" math="0" shadow="0">
      <root>
        <mxCell id="0" />
        <mxCell id="1" parent="0" />
        <mxCell id="CbsCnhIlI9CXAqKpm2ow-4" value="" style="edgeStyle=orthogonalEdgeStyle;rounded=0;orthogonalLoop=1;jettySize=auto;html=1;" edge="1" parent="1" source="CbsCnhIlI9CXAqKpm2ow-1" target="CbsCnhIlI9CXAqKpm2ow-3">
          <mxGeometry relative="1" as="geometry" />
        </mxCell>
        <mxCell id="CbsCnhIlI9CXAqKpm2ow-1" value="Inizio&lt;span style=&quot;white-space: pre;&quot;&gt;&#x9;&lt;/span&gt;" style="ellipse;whiteSpace=wrap;html=1;aspect=fixed;fillColor=#60a917;strokeColor=#2D7600;fontColor=#ffffff;" vertex="1" parent="1">
          <mxGeometry x="53" y="94" width="52.5" height="52.5" as="geometry" />
        </mxCell>
        <mxCell id="CbsCnhIlI9CXAqKpm2ow-2" value="Event Page" style="text;html=1;strokeColor=none;fillColor=none;align=center;verticalAlign=middle;whiteSpace=wrap;rounded=0;" vertex="1" parent="1">
          <mxGeometry x="49.25" y="62" width="60" height="30" as="geometry" />
        </mxCell>
        <mxCell id="CbsCnhIlI9CXAqKpm2ow-6" value="" style="edgeStyle=orthogonalEdgeStyle;rounded=0;orthogonalLoop=1;jettySize=auto;html=1;" edge="1" parent="1" source="CbsCnhIlI9CXAqKpm2ow-3" target="CbsCnhIlI9CXAqKpm2ow-5">
          <mxGeometry relative="1" as="geometry" />
        </mxCell>
        <mxCell id="CbsCnhIlI9CXAqKpm2ow-3" value="Event Page" style="rounded=1;whiteSpace=wrap;html=1;fillColor=#ffe6cc;strokeColor=#d79b00;" vertex="1" parent="1">
          <mxGeometry x="150" y="95.25" width="100" height="50" as="geometry" />
        </mxCell>
        <mxCell id="CbsCnhIlI9CXAqKpm2ow-10" style="edgeStyle=orthogonalEdgeStyle;rounded=0;orthogonalLoop=1;jettySize=auto;html=1;entryX=0;entryY=0.5;entryDx=0;entryDy=0;" edge="1" parent="1" source="CbsCnhIlI9CXAqKpm2ow-5" target="CbsCnhIlI9CXAqKpm2ow-7">
          <mxGeometry relative="1" as="geometry">
            <Array as="points">
              <mxPoint x="342" y="39" />
            </Array>
          </mxGeometry>
        </mxCell>
        <mxCell id="CbsCnhIlI9CXAqKpm2ow-11" value="" style="edgeStyle=orthogonalEdgeStyle;rounded=0;orthogonalLoop=1;jettySize=auto;html=1;" edge="1" parent="1" source="CbsCnhIlI9CXAqKpm2ow-5" target="CbsCnhIlI9CXAqKpm2ow-8">
          <mxGeometry relative="1" as="geometry" />
        </mxCell>
        <mxCell id="CbsCnhIlI9CXAqKpm2ow-12" style="edgeStyle=orthogonalEdgeStyle;rounded=0;orthogonalLoop=1;jettySize=auto;html=1;entryX=0;entryY=0.5;entryDx=0;entryDy=0;" edge="1" parent="1" source="CbsCnhIlI9CXAqKpm2ow-5" target="CbsCnhIlI9CXAqKpm2ow-9">
          <mxGeometry relative="1" as="geometry">
            <Array as="points">
              <mxPoint x="340" y="285" />
            </Array>
          </mxGeometry>
        </mxCell>
        <mxCell id="CbsCnhIlI9CXAqKpm2ow-5" value="Scelta" style="html=1;whiteSpace=wrap;aspect=fixed;shape=isoRectangle;fillColor=#e1d5e7;strokeColor=#9673a6;" vertex="1" parent="1">
          <mxGeometry x="300" y="95.25" width="83.33" height="50" as="geometry" />
        </mxCell>
        <mxCell id="CbsCnhIlI9CXAqKpm2ow-15" style="edgeStyle=orthogonalEdgeStyle;rounded=0;orthogonalLoop=1;jettySize=auto;html=1;entryX=0;entryY=0.5;entryDx=0;entryDy=0;" edge="1" parent="1" source="CbsCnhIlI9CXAqKpm2ow-7" target="CbsCnhIlI9CXAqKpm2ow-14">
          <mxGeometry relative="1" as="geometry" />
        </mxCell>
        <mxCell id="CbsCnhIlI9CXAqKpm2ow-7" value="Click su Subscribe" style="rounded=1;whiteSpace=wrap;html=1;fillColor=#dae8fc;strokeColor=#6c8ebf;" vertex="1" parent="1">
          <mxGeometry x="414" y="14" width="100" height="50" as="geometry" />
        </mxCell>
        <mxCell id="CbsCnhIlI9CXAqKpm2ow-16" value="" style="edgeStyle=orthogonalEdgeStyle;rounded=0;orthogonalLoop=1;jettySize=auto;html=1;" edge="1" parent="1" source="CbsCnhIlI9CXAqKpm2ow-8" target="CbsCnhIlI9CXAqKpm2ow-13">
          <mxGeometry relative="1" as="geometry" />
        </mxCell>
        <mxCell id="CbsCnhIlI9CXAqKpm2ow-8" value="Click su Rating" style="rounded=1;whiteSpace=wrap;html=1;fillColor=#dae8fc;strokeColor=#6c8ebf;" vertex="1" parent="1">
          <mxGeometry x="414" y="95.5" width="100" height="50" as="geometry" />
        </mxCell>
        <mxCell id="CbsCnhIlI9CXAqKpm2ow-22" value="" style="edgeStyle=orthogonalEdgeStyle;rounded=0;orthogonalLoop=1;jettySize=auto;html=1;" edge="1" parent="1" source="CbsCnhIlI9CXAqKpm2ow-9" target="CbsCnhIlI9CXAqKpm2ow-21">
          <mxGeometry relative="1" as="geometry" />
        </mxCell>
        <mxCell id="CbsCnhIlI9CXAqKpm2ow-9" value="Click su Commenti" style="rounded=1;whiteSpace=wrap;html=1;fillColor=#dae8fc;strokeColor=#6c8ebf;" vertex="1" parent="1">
          <mxGeometry x="414" y="260" width="100" height="50" as="geometry" />
        </mxCell>
        <mxCell id="CbsCnhIlI9CXAqKpm2ow-13" value="Rating avvenuto con successo" style="rounded=1;whiteSpace=wrap;html=1;fillColor=#ffe6cc;strokeColor=#d79b00;" vertex="1" parent="1">
          <mxGeometry x="580" y="95.25" width="100" height="50" as="geometry" />
        </mxCell>
        <mxCell id="CbsCnhIlI9CXAqKpm2ow-14" value="Iscrizione avvenuta con successo" style="rounded=1;whiteSpace=wrap;html=1;fillColor=#ffe6cc;strokeColor=#d79b00;" vertex="1" parent="1">
          <mxGeometry x="580" y="14.25" width="100" height="50" as="geometry" />
        </mxCell>
        <mxCell id="CbsCnhIlI9CXAqKpm2ow-18" style="edgeStyle=orthogonalEdgeStyle;rounded=0;orthogonalLoop=1;jettySize=auto;html=1;entryX=0.36;entryY=0.095;entryDx=0;entryDy=0;entryPerimeter=0;" edge="1" parent="1" source="CbsCnhIlI9CXAqKpm2ow-14" target="CbsCnhIlI9CXAqKpm2ow-5">
          <mxGeometry relative="1" as="geometry">
            <mxPoint x="230" y="60" as="targetPoint" />
            <Array as="points">
              <mxPoint x="630" y="-20" />
              <mxPoint x="330" y="-20" />
            </Array>
          </mxGeometry>
        </mxCell>
        <mxCell id="CbsCnhIlI9CXAqKpm2ow-19" style="edgeStyle=orthogonalEdgeStyle;rounded=0;orthogonalLoop=1;jettySize=auto;html=1;entryX=0.12;entryY=0.295;entryDx=0;entryDy=0;entryPerimeter=0;" edge="1" parent="1" source="CbsCnhIlI9CXAqKpm2ow-13" target="CbsCnhIlI9CXAqKpm2ow-5">
          <mxGeometry relative="1" as="geometry">
            <Array as="points">
              <mxPoint x="720" y="120" />
              <mxPoint x="720" y="-90" />
              <mxPoint x="310" y="-90" />
            </Array>
          </mxGeometry>
        </mxCell>
        <mxCell id="CbsCnhIlI9CXAqKpm2ow-25" style="edgeStyle=orthogonalEdgeStyle;rounded=0;orthogonalLoop=1;jettySize=auto;html=1;entryX=0;entryY=0.5;entryDx=0;entryDy=0;" edge="1" parent="1" source="CbsCnhIlI9CXAqKpm2ow-21" target="CbsCnhIlI9CXAqKpm2ow-23">
          <mxGeometry relative="1" as="geometry">
            <Array as="points">
              <mxPoint x="602" y="235" />
            </Array>
          </mxGeometry>
        </mxCell>
        <mxCell id="CbsCnhIlI9CXAqKpm2ow-21" value="Scelta" style="html=1;whiteSpace=wrap;aspect=fixed;shape=isoRectangle;fillColor=#e1d5e7;strokeColor=#9673a6;" vertex="1" parent="1">
          <mxGeometry x="560" y="260" width="83.33" height="50" as="geometry" />
        </mxCell>
        <mxCell id="CbsCnhIlI9CXAqKpm2ow-23" value="Leggi commenti" style="rounded=1;whiteSpace=wrap;html=1;fillColor=#dae8fc;strokeColor=#6c8ebf;" vertex="1" parent="1">
          <mxGeometry x="680" y="210" width="100" height="50" as="geometry" />
        </mxCell>
        <mxCell id="CbsCnhIlI9CXAqKpm2ow-30" value="" style="edgeStyle=orthogonalEdgeStyle;rounded=0;orthogonalLoop=1;jettySize=auto;html=1;" edge="1" parent="1" source="CbsCnhIlI9CXAqKpm2ow-24" target="CbsCnhIlI9CXAqKpm2ow-28">
          <mxGeometry relative="1" as="geometry" />
        </mxCell>
        <mxCell id="CbsCnhIlI9CXAqKpm2ow-24" value="Commenta" style="rounded=1;whiteSpace=wrap;html=1;fillColor=#dae8fc;strokeColor=#6c8ebf;" vertex="1" parent="1">
          <mxGeometry x="680" y="310" width="100" height="50" as="geometry" />
        </mxCell>
        <mxCell id="CbsCnhIlI9CXAqKpm2ow-26" style="edgeStyle=orthogonalEdgeStyle;rounded=0;orthogonalLoop=1;jettySize=auto;html=1;entryX=0;entryY=0.5;entryDx=0;entryDy=0;" edge="1" parent="1" source="CbsCnhIlI9CXAqKpm2ow-21" target="CbsCnhIlI9CXAqKpm2ow-24">
          <mxGeometry relative="1" as="geometry">
            <Array as="points">
              <mxPoint x="602" y="335" />
            </Array>
          </mxGeometry>
        </mxCell>
        <mxCell id="CbsCnhIlI9CXAqKpm2ow-27" style="edgeStyle=orthogonalEdgeStyle;rounded=0;orthogonalLoop=1;jettySize=auto;html=1;entryX=0.03;entryY=0.365;entryDx=0;entryDy=0;entryPerimeter=0;" edge="1" parent="1" source="CbsCnhIlI9CXAqKpm2ow-23" target="CbsCnhIlI9CXAqKpm2ow-5">
          <mxGeometry relative="1" as="geometry">
            <Array as="points">
              <mxPoint x="740" y="-140" />
              <mxPoint x="303" y="-140" />
            </Array>
          </mxGeometry>
        </mxCell>
        <mxCell id="CbsCnhIlI9CXAqKpm2ow-28" value="Commento avvenuto con successo" style="rounded=1;whiteSpace=wrap;html=1;fillColor=#ffe6cc;strokeColor=#d79b00;" vertex="1" parent="1">
          <mxGeometry x="680" y="410" width="100" height="50" as="geometry" />
        </mxCell>
        <mxCell id="CbsCnhIlI9CXAqKpm2ow-31" style="edgeStyle=orthogonalEdgeStyle;rounded=0;orthogonalLoop=1;jettySize=auto;html=1;entryX=0.135;entryY=0.744;entryDx=0;entryDy=0;entryPerimeter=0;" edge="1" parent="1" source="CbsCnhIlI9CXAqKpm2ow-28" target="CbsCnhIlI9CXAqKpm2ow-5">
          <mxGeometry relative="1" as="geometry" />
        </mxCell>
      </root>
    </mxGraphModel>
  </diagram>
</mxfile>
